<mxfile host="app.diagrams.net" modified="2021-11-05T08:31:13.865Z" agent="5.0 (Windows NT 10.0; Win64; x64) AppleWebKit/537.36 (KHTML, like Gecko) Chrome/95.0.4638.69 Safari/537.36" etag="2jjyiaU9r4oX3oiqnDZR" version="15.5.2" type="github">
  <diagram name="Page-1" id="e7e014a7-5840-1c2e-5031-d8a46d1fe8dd">
    <mxGraphModel dx="1422" dy="762" grid="1" gridSize="10" guides="1" tooltips="1" connect="1" arrows="1" fold="1" page="1" pageScale="1" pageWidth="1169" pageHeight="826" background="none" math="0" shadow="0">
      <root>
        <mxCell id="0" />
        <mxCell id="1" parent="0" />
        <mxCell id="RMyqbubUfdhZPi6-B0Fd-41" value="" style="ellipse;html=1;shape=startState;fillColor=#000000;strokeColor=#ff0000;" vertex="1" parent="1">
          <mxGeometry x="280" y="90" width="30" height="30" as="geometry" />
        </mxCell>
        <mxCell id="RMyqbubUfdhZPi6-B0Fd-42" value="" style="edgeStyle=orthogonalEdgeStyle;html=1;verticalAlign=bottom;endArrow=open;endSize=8;strokeColor=#ff0000;rounded=0;" edge="1" source="RMyqbubUfdhZPi6-B0Fd-41" parent="1">
          <mxGeometry relative="1" as="geometry">
            <mxPoint x="295" y="160" as="targetPoint" />
          </mxGeometry>
        </mxCell>
        <mxCell id="RMyqbubUfdhZPi6-B0Fd-64" style="edgeStyle=orthogonalEdgeStyle;rounded=0;orthogonalLoop=1;jettySize=auto;html=1;entryX=0.5;entryY=0;entryDx=0;entryDy=0;" edge="1" parent="1" source="RMyqbubUfdhZPi6-B0Fd-45" target="RMyqbubUfdhZPi6-B0Fd-55">
          <mxGeometry relative="1" as="geometry" />
        </mxCell>
        <mxCell id="RMyqbubUfdhZPi6-B0Fd-45" value="Create a PKCS7 data&amp;nbsp;" style="html=1;" vertex="1" parent="1">
          <mxGeometry x="185" y="160" width="220" height="30" as="geometry" />
        </mxCell>
        <mxCell id="RMyqbubUfdhZPi6-B0Fd-72" style="edgeStyle=orthogonalEdgeStyle;rounded=0;orthogonalLoop=1;jettySize=auto;html=1;entryX=0.5;entryY=0;entryDx=0;entryDy=0;" edge="1" parent="1" source="RMyqbubUfdhZPi6-B0Fd-46" target="RMyqbubUfdhZPi6-B0Fd-57">
          <mxGeometry relative="1" as="geometry" />
        </mxCell>
        <mxCell id="RMyqbubUfdhZPi6-B0Fd-46" value="Add signer certificate" style="html=1;" vertex="1" parent="1">
          <mxGeometry x="185" y="430" width="220" height="30" as="geometry" />
        </mxCell>
        <mxCell id="RMyqbubUfdhZPi6-B0Fd-75" style="edgeStyle=orthogonalEdgeStyle;rounded=0;orthogonalLoop=1;jettySize=auto;html=1;" edge="1" parent="1" source="RMyqbubUfdhZPi6-B0Fd-48" target="RMyqbubUfdhZPi6-B0Fd-49">
          <mxGeometry relative="1" as="geometry" />
        </mxCell>
        <mxCell id="RMyqbubUfdhZPi6-B0Fd-48" value="Set signed attributes" style="html=1;" vertex="1" parent="1">
          <mxGeometry x="550" y="550" width="140" height="30" as="geometry" />
        </mxCell>
        <mxCell id="RMyqbubUfdhZPi6-B0Fd-76" style="edgeStyle=orthogonalEdgeStyle;rounded=0;orthogonalLoop=1;jettySize=auto;html=1;entryX=0.5;entryY=1;entryDx=0;entryDy=0;" edge="1" parent="1" source="RMyqbubUfdhZPi6-B0Fd-49" target="RMyqbubUfdhZPi6-B0Fd-59">
          <mxGeometry relative="1" as="geometry" />
        </mxCell>
        <mxCell id="RMyqbubUfdhZPi6-B0Fd-49" value="Add&amp;nbsp; signed sttribute" style="html=1;" vertex="1" parent="1">
          <mxGeometry x="550" y="490" width="140" height="30" as="geometry" />
        </mxCell>
        <mxCell id="RMyqbubUfdhZPi6-B0Fd-78" style="edgeStyle=orthogonalEdgeStyle;rounded=0;orthogonalLoop=1;jettySize=auto;html=1;entryX=0.5;entryY=1;entryDx=0;entryDy=0;" edge="1" parent="1" source="RMyqbubUfdhZPi6-B0Fd-50" target="RMyqbubUfdhZPi6-B0Fd-51">
          <mxGeometry relative="1" as="geometry" />
        </mxCell>
        <mxCell id="RMyqbubUfdhZPi6-B0Fd-50" value="Create new content" style="html=1;" vertex="1" parent="1">
          <mxGeometry x="550" y="360" width="140" height="30" as="geometry" />
        </mxCell>
        <mxCell id="RMyqbubUfdhZPi6-B0Fd-79" style="edgeStyle=orthogonalEdgeStyle;rounded=0;orthogonalLoop=1;jettySize=auto;html=1;" edge="1" parent="1" source="RMyqbubUfdhZPi6-B0Fd-51" target="RMyqbubUfdhZPi6-B0Fd-60">
          <mxGeometry relative="1" as="geometry" />
        </mxCell>
        <mxCell id="RMyqbubUfdhZPi6-B0Fd-51" value="Open bio for writing PKCS#7" style="html=1;" vertex="1" parent="1">
          <mxGeometry x="530" y="290" width="180" height="30" as="geometry" />
        </mxCell>
        <mxCell id="RMyqbubUfdhZPi6-B0Fd-84" style="edgeStyle=orthogonalEdgeStyle;rounded=0;orthogonalLoop=1;jettySize=auto;html=1;" edge="1" parent="1" source="RMyqbubUfdhZPi6-B0Fd-52" target="RMyqbubUfdhZPi6-B0Fd-83">
          <mxGeometry relative="1" as="geometry" />
        </mxCell>
        <mxCell id="RMyqbubUfdhZPi6-B0Fd-52" value="Finalize PKCS#7" style="html=1;" vertex="1" parent="1">
          <mxGeometry x="810" y="230" width="110" height="30" as="geometry" />
        </mxCell>
        <mxCell id="RMyqbubUfdhZPi6-B0Fd-66" value="" style="edgeStyle=orthogonalEdgeStyle;rounded=0;orthogonalLoop=1;jettySize=auto;html=1;" edge="1" parent="1" source="RMyqbubUfdhZPi6-B0Fd-53" target="RMyqbubUfdhZPi6-B0Fd-56">
          <mxGeometry relative="1" as="geometry" />
        </mxCell>
        <mxCell id="RMyqbubUfdhZPi6-B0Fd-53" value="Set the datatype as NID_pkcs7_signed" style="html=1;" vertex="1" parent="1">
          <mxGeometry x="185" y="300" width="220" height="30" as="geometry" />
        </mxCell>
        <mxCell id="RMyqbubUfdhZPi6-B0Fd-65" style="edgeStyle=orthogonalEdgeStyle;rounded=0;orthogonalLoop=1;jettySize=auto;html=1;entryX=0.5;entryY=0;entryDx=0;entryDy=0;" edge="1" parent="1" source="RMyqbubUfdhZPi6-B0Fd-55" target="RMyqbubUfdhZPi6-B0Fd-53">
          <mxGeometry relative="1" as="geometry" />
        </mxCell>
        <mxCell id="RMyqbubUfdhZPi6-B0Fd-88" style="edgeStyle=orthogonalEdgeStyle;rounded=0;orthogonalLoop=1;jettySize=auto;html=1;entryX=1;entryY=0.5;entryDx=0;entryDy=0;" edge="1" parent="1" source="RMyqbubUfdhZPi6-B0Fd-55" target="RMyqbubUfdhZPi6-B0Fd-87">
          <mxGeometry relative="1" as="geometry" />
        </mxCell>
        <mxCell id="RMyqbubUfdhZPi6-B0Fd-55" value="" style="rhombus;whiteSpace=wrap;html=1;" vertex="1" parent="1">
          <mxGeometry x="272.5" y="230" width="45" height="40" as="geometry" />
        </mxCell>
        <mxCell id="RMyqbubUfdhZPi6-B0Fd-69" value="" style="edgeStyle=orthogonalEdgeStyle;rounded=0;orthogonalLoop=1;jettySize=auto;html=1;" edge="1" parent="1" source="RMyqbubUfdhZPi6-B0Fd-56">
          <mxGeometry relative="1" as="geometry">
            <mxPoint x="295" y="430" as="targetPoint" />
          </mxGeometry>
        </mxCell>
        <mxCell id="RMyqbubUfdhZPi6-B0Fd-90" style="edgeStyle=orthogonalEdgeStyle;rounded=0;orthogonalLoop=1;jettySize=auto;html=1;" edge="1" parent="1" source="RMyqbubUfdhZPi6-B0Fd-56" target="RMyqbubUfdhZPi6-B0Fd-89">
          <mxGeometry relative="1" as="geometry" />
        </mxCell>
        <mxCell id="RMyqbubUfdhZPi6-B0Fd-56" value="" style="rhombus;whiteSpace=wrap;html=1;" vertex="1" parent="1">
          <mxGeometry x="272.5" y="360" width="45" height="40" as="geometry" />
        </mxCell>
        <mxCell id="RMyqbubUfdhZPi6-B0Fd-73" style="edgeStyle=orthogonalEdgeStyle;rounded=0;orthogonalLoop=1;jettySize=auto;html=1;entryX=0.5;entryY=0;entryDx=0;entryDy=0;" edge="1" parent="1" source="RMyqbubUfdhZPi6-B0Fd-57" target="RMyqbubUfdhZPi6-B0Fd-58">
          <mxGeometry relative="1" as="geometry" />
        </mxCell>
        <mxCell id="RMyqbubUfdhZPi6-B0Fd-57" value="Add signer signature" style="html=1;" vertex="1" parent="1">
          <mxGeometry x="185" y="490" width="220" height="30" as="geometry" />
        </mxCell>
        <mxCell id="RMyqbubUfdhZPi6-B0Fd-74" style="edgeStyle=orthogonalEdgeStyle;rounded=0;orthogonalLoop=1;jettySize=auto;html=1;" edge="1" parent="1" source="RMyqbubUfdhZPi6-B0Fd-58" target="RMyqbubUfdhZPi6-B0Fd-48">
          <mxGeometry relative="1" as="geometry" />
        </mxCell>
        <mxCell id="RMyqbubUfdhZPi6-B0Fd-92" style="edgeStyle=orthogonalEdgeStyle;rounded=0;orthogonalLoop=1;jettySize=auto;html=1;" edge="1" parent="1" source="RMyqbubUfdhZPi6-B0Fd-58" target="RMyqbubUfdhZPi6-B0Fd-91">
          <mxGeometry relative="1" as="geometry" />
        </mxCell>
        <mxCell id="RMyqbubUfdhZPi6-B0Fd-58" value="" style="rhombus;whiteSpace=wrap;html=1;" vertex="1" parent="1">
          <mxGeometry x="272.5" y="545" width="45" height="40" as="geometry" />
        </mxCell>
        <mxCell id="RMyqbubUfdhZPi6-B0Fd-77" style="edgeStyle=orthogonalEdgeStyle;rounded=0;orthogonalLoop=1;jettySize=auto;html=1;" edge="1" parent="1" source="RMyqbubUfdhZPi6-B0Fd-59" target="RMyqbubUfdhZPi6-B0Fd-50">
          <mxGeometry relative="1" as="geometry" />
        </mxCell>
        <mxCell id="RMyqbubUfdhZPi6-B0Fd-59" value="" style="rhombus;whiteSpace=wrap;html=1;" vertex="1" parent="1">
          <mxGeometry x="597.5" y="420" width="45" height="40" as="geometry" />
        </mxCell>
        <mxCell id="RMyqbubUfdhZPi6-B0Fd-80" style="edgeStyle=orthogonalEdgeStyle;rounded=0;orthogonalLoop=1;jettySize=auto;html=1;" edge="1" parent="1" source="RMyqbubUfdhZPi6-B0Fd-60" target="RMyqbubUfdhZPi6-B0Fd-61">
          <mxGeometry relative="1" as="geometry" />
        </mxCell>
        <mxCell id="RMyqbubUfdhZPi6-B0Fd-94" style="edgeStyle=orthogonalEdgeStyle;rounded=0;orthogonalLoop=1;jettySize=auto;html=1;entryX=1;entryY=0.5;entryDx=0;entryDy=0;" edge="1" parent="1" source="RMyqbubUfdhZPi6-B0Fd-60" target="RMyqbubUfdhZPi6-B0Fd-93">
          <mxGeometry relative="1" as="geometry" />
        </mxCell>
        <mxCell id="RMyqbubUfdhZPi6-B0Fd-60" value="" style="rhombus;whiteSpace=wrap;html=1;" vertex="1" parent="1">
          <mxGeometry x="597.5" y="220" width="45" height="40" as="geometry" />
        </mxCell>
        <mxCell id="RMyqbubUfdhZPi6-B0Fd-81" style="edgeStyle=orthogonalEdgeStyle;rounded=0;orthogonalLoop=1;jettySize=auto;html=1;entryX=0;entryY=0.5;entryDx=0;entryDy=0;" edge="1" parent="1" source="RMyqbubUfdhZPi6-B0Fd-61" target="RMyqbubUfdhZPi6-B0Fd-62">
          <mxGeometry relative="1" as="geometry" />
        </mxCell>
        <mxCell id="RMyqbubUfdhZPi6-B0Fd-61" value="Writing PKCS#7 data" style="html=1;" vertex="1" parent="1">
          <mxGeometry x="550" y="160" width="140" height="30" as="geometry" />
        </mxCell>
        <mxCell id="RMyqbubUfdhZPi6-B0Fd-82" style="edgeStyle=orthogonalEdgeStyle;rounded=0;orthogonalLoop=1;jettySize=auto;html=1;entryX=0.5;entryY=0;entryDx=0;entryDy=0;" edge="1" parent="1" source="RMyqbubUfdhZPi6-B0Fd-62" target="RMyqbubUfdhZPi6-B0Fd-52">
          <mxGeometry relative="1" as="geometry" />
        </mxCell>
        <mxCell id="RMyqbubUfdhZPi6-B0Fd-86" style="edgeStyle=orthogonalEdgeStyle;rounded=0;orthogonalLoop=1;jettySize=auto;html=1;entryX=0;entryY=0.5;entryDx=0;entryDy=0;" edge="1" parent="1" source="RMyqbubUfdhZPi6-B0Fd-62" target="RMyqbubUfdhZPi6-B0Fd-85">
          <mxGeometry relative="1" as="geometry" />
        </mxCell>
        <mxCell id="RMyqbubUfdhZPi6-B0Fd-62" value="" style="rhombus;whiteSpace=wrap;html=1;" vertex="1" parent="1">
          <mxGeometry x="842.5" y="155" width="45" height="40" as="geometry" />
        </mxCell>
        <mxCell id="RMyqbubUfdhZPi6-B0Fd-83" value="" style="ellipse;html=1;shape=endState;fillColor=#000000;strokeColor=#ff0000;" vertex="1" parent="1">
          <mxGeometry x="850" y="290" width="30" height="30" as="geometry" />
        </mxCell>
        <mxCell id="RMyqbubUfdhZPi6-B0Fd-85" value="" style="ellipse;html=1;shape=endState;fillColor=#000000;strokeColor=#ff0000;" vertex="1" parent="1">
          <mxGeometry x="940" y="160" width="30" height="30" as="geometry" />
        </mxCell>
        <mxCell id="RMyqbubUfdhZPi6-B0Fd-87" value="" style="ellipse;html=1;shape=endState;fillColor=#000000;strokeColor=#ff0000;" vertex="1" parent="1">
          <mxGeometry x="180" y="235" width="30" height="30" as="geometry" />
        </mxCell>
        <mxCell id="RMyqbubUfdhZPi6-B0Fd-89" value="" style="ellipse;html=1;shape=endState;fillColor=#000000;strokeColor=#ff0000;" vertex="1" parent="1">
          <mxGeometry x="180" y="365" width="30" height="30" as="geometry" />
        </mxCell>
        <mxCell id="RMyqbubUfdhZPi6-B0Fd-91" value="" style="ellipse;html=1;shape=endState;fillColor=#000000;strokeColor=#ff0000;" vertex="1" parent="1">
          <mxGeometry x="180" y="550" width="30" height="30" as="geometry" />
        </mxCell>
        <mxCell id="RMyqbubUfdhZPi6-B0Fd-93" value="" style="ellipse;html=1;shape=endState;fillColor=#000000;strokeColor=#ff0000;" vertex="1" parent="1">
          <mxGeometry x="510" y="225" width="30" height="30" as="geometry" />
        </mxCell>
        <mxCell id="RMyqbubUfdhZPi6-B0Fd-95" value="Failed" style="text;html=1;align=center;verticalAlign=middle;resizable=0;points=[];autosize=1;strokeColor=none;fillColor=none;" vertex="1" parent="1">
          <mxGeometry x="220" y="230" width="50" height="20" as="geometry" />
        </mxCell>
        <mxCell id="RMyqbubUfdhZPi6-B0Fd-96" value="Failed" style="text;html=1;align=center;verticalAlign=middle;resizable=0;points=[];autosize=1;strokeColor=none;fillColor=none;" vertex="1" parent="1">
          <mxGeometry x="220" y="360" width="50" height="20" as="geometry" />
        </mxCell>
        <mxCell id="RMyqbubUfdhZPi6-B0Fd-97" value="Failed" style="text;html=1;align=center;verticalAlign=middle;resizable=0;points=[];autosize=1;strokeColor=none;fillColor=none;" vertex="1" parent="1">
          <mxGeometry x="220" y="545" width="50" height="20" as="geometry" />
        </mxCell>
        <mxCell id="RMyqbubUfdhZPi6-B0Fd-98" value="Failed" style="text;html=1;align=center;verticalAlign=middle;resizable=0;points=[];autosize=1;strokeColor=none;fillColor=none;" vertex="1" parent="1">
          <mxGeometry x="547.5" y="220" width="50" height="20" as="geometry" />
        </mxCell>
        <mxCell id="RMyqbubUfdhZPi6-B0Fd-99" value="Failed" style="text;html=1;align=center;verticalAlign=middle;resizable=0;points=[];autosize=1;strokeColor=none;fillColor=none;" vertex="1" parent="1">
          <mxGeometry x="880" y="155" width="50" height="20" as="geometry" />
        </mxCell>
        <mxCell id="RMyqbubUfdhZPi6-B0Fd-100" value="Success" style="text;html=1;align=center;verticalAlign=middle;resizable=0;points=[];autosize=1;strokeColor=none;fillColor=none;" vertex="1" parent="1">
          <mxGeometry x="300" y="270" width="60" height="20" as="geometry" />
        </mxCell>
        <mxCell id="RMyqbubUfdhZPi6-B0Fd-101" value="Success" style="text;html=1;align=center;verticalAlign=middle;resizable=0;points=[];autosize=1;strokeColor=none;fillColor=none;" vertex="1" parent="1">
          <mxGeometry x="290" y="403" width="60" height="20" as="geometry" />
        </mxCell>
        <mxCell id="RMyqbubUfdhZPi6-B0Fd-102" value="Success" style="text;html=1;align=center;verticalAlign=middle;resizable=0;points=[];autosize=1;strokeColor=none;fillColor=none;" vertex="1" parent="1">
          <mxGeometry x="405" y="545" width="60" height="20" as="geometry" />
        </mxCell>
        <mxCell id="RMyqbubUfdhZPi6-B0Fd-103" value="Success" style="text;html=1;align=center;verticalAlign=middle;resizable=0;points=[];autosize=1;strokeColor=none;fillColor=none;" vertex="1" parent="1">
          <mxGeometry x="620" y="200" width="60" height="20" as="geometry" />
        </mxCell>
        <mxCell id="RMyqbubUfdhZPi6-B0Fd-104" value="Success" style="text;html=1;align=center;verticalAlign=middle;resizable=0;points=[];autosize=1;strokeColor=none;fillColor=none;" vertex="1" parent="1">
          <mxGeometry x="740" y="155" width="60" height="20" as="geometry" />
        </mxCell>
      </root>
    </mxGraphModel>
  </diagram>
</mxfile>
